<svg width="903" height="486" viewBox="0 0 903 486" fill="none" xmlns="http://www.w3.org/2000/svg">
<g opacity="0.1">
<path d="M901.793 405.232C877.312 389.983 847.546 374.308 829.107 353.841C800.339 321.908 838.203 276.091 797.833 245.8C765.475 221.52 765.854 195.167 769.503 159.757C772.364 131.977 773.753 86.342 736.76 79.633C697.461 72.507 671.204 93.115 642.501 117.618C604.972 149.657 541.639 170.905 493.466 153.395C468.456 144.305 442.299 144.218 414.121 145.499C393.862 146.42 371.178 150.56 352.707 143.716C329.99 135.299 326.085 110.268 320.868 90.598C312.579 59.343 284.055 21.501 253.135 6.11299C204.469 -18.107 157.728 47.085 112.171 53.65C74.475 59.081 34.977 30.032 0.677979 56.194" stroke="#FFD700" stroke-miterlimit="10"/>
<path d="M901.793 405.232C876.916 390.024 847.597 374.926 827.666 355.118C797.128 324.769 834.23 279.481 795.588 249.623C763.268 224.649 759.826 203.961 763.591 166.783C766.421 138.843 770.103 92.62 732.129 85.419C692.537 77.912 666.291 99.915 636.621 123.106C594.858 155.747 541.385 177.865 487.907 158.006C462.402 148.534 437.445 146.857 409.372 147.493C389.231 147.95 367.375 151.58 348.785 145.005C323.858 136.19 322.555 109.352 316.921 88.82C308.962 59.814 280.438 23.11 251.182 9.49199C201.549 -13.608 156.609 49.988 110.262 55.139C73.437 59.23 34.624 30.572 0.677979 56.193" stroke="#FFD700" stroke-miterlimit="10"/>
<path d="M901.793 405.232C876.53 390.077 847.591 375.485 826.258 356.392C794.026 327.544 830.658 282.059 793.365 253.426C761.315 228.816 754.401 210.721 757.799 173.596C760.367 145.539 766.597 98.846 727.823 91.034C687.825 82.976 660.903 106.839 630.06 128.733C611.811 141.687 589.882 154.817 568.429 164.422C536.232 178.836 513.876 175.211 482.377 162.393C457.328 152.2 432.651 149.358 404.649 149.409C384.652 149.446 363.717 152.504 344.937 146.248C319.626 137.814 318.662 111.221 313.773 90.939C306.911 62.474 278.432 25.691 249.26 13.005C198.502 -9.06802 153.663 54.813 108.371 56.571C75.114 57.861 32.531 32.317 0.677979 56.195" stroke="#FFD700" stroke-miterlimit="10"/>
<path d="M901.793 405.232C876.157 390.141 847.568 375.992 824.883 357.661C790.853 330.161 826.515 284.655 791.121 257.252C760.04 233.189 749.503 216.788 752.201 180.067C754.262 152.013 763.044 104.957 723.83 96.481C683.484 87.761 655.604 112.276 623.271 134.142C604.134 147.084 583.861 161.865 562.298 171.806C530 186.697 507.569 180.091 476.84 166.467C452.281 155.579 427.902 151.739 399.945 151.26C380.142 150.921 360.036 153.368 341.174 147.433C315.461 139.342 314.69 113.217 310.527 93.023C304.729 64.905 276.48 28.529 247.353 16.621C195.621 -4.532 154.573 56.063 106.482 57.917C71.159 59.28 33.812 31.631 0.677979 56.193" stroke="#FFD700" stroke-miterlimit="10"/>
<path d="M901.793 405.232C875.797 390.216 847.391 376.465 823.541 358.923C787.817 332.649 822.415 287.562 788.806 261.154C758.869 237.633 745.184 221.928 746.861 186.111C748.166 158.249 760.554 113.718 720.107 101.782C680.208 90.007 645.263 120.158 616.516 139.636C597.359 152.619 578.116 169.48 556.378 179.506C524.093 194.397 500.87 184.302 471.272 170.17C447.144 158.649 423.186 154.038 395.258 153.076C375.72 152.402 356.304 154.164 337.504 148.561C311.341 140.764 310.691 115.363 307.179 95.077C302.336 67.107 274.606 31.611 245.442 20.323C193.036 0.0429916 153.478 59.115 104.613 59.215C69.893 59.288 33.48 32.155 0.677002 56.191" stroke="#FFD700" stroke-miterlimit="10"/>
<path d="M901.793 405.232C875.452 390.303 847.108 376.916 822.231 360.182C784.756 334.975 817.903 290.586 786.371 265.188C758.209 242.504 741.443 225.996 741.837 191.679C742.153 164.239 756.489 119.524 716.594 106.974C677.25 94.598 637.431 125.626 609.864 145.431C591.385 158.708 572.621 177.641 550.647 187.392C518.472 201.669 493.848 187.799 465.658 173.464C441.891 161.38 418.498 156.305 390.595 154.884C371.407 153.906 352.552 154.87 333.943 149.625C309.542 142.747 306.426 120.548 303.997 101.15C300.249 71.213 275.395 35.86 243.516 24.097C190.797 4.64199 152.155 62.182 102.768 60.471C68.672 59.289 33.144 32.686 0.677002 56.194" stroke="#FFD700" stroke-miterlimit="10"/>
<path d="M901.793 405.232C875.121 390.402 846.736 377.357 820.955 361.436C781.641 337.157 813.087 295.059 783.76 269.415C758.169 247.039 738.217 228.967 737.172 196.753C736.302 169.983 752.051 125.1 713.191 112.104C674.233 99.075 629.588 131.118 603.357 151.684C585.937 165.342 567.295 186.4 545.057 195.293C513.052 208.094 486.572 190.469 459.974 176.337C418.874 154.5 375.438 162.555 330.496 150.62C305.732 144.044 302.313 122.85 300.347 103.076C297.37 73.126 272.386 36.712 241.561 27.916C190.621 13.378 151.976 65.165 100.947 61.679C67.612 59.402 32.804 33.213 0.677979 56.193" stroke="#FFD700" stroke-miterlimit="10"/>
<path d="M901.793 405.232C874.804 390.51 846.383 377.711 819.713 362.684C778.66 339.553 806.773 299.958 780.913 273.9C759.375 252.197 735.39 231.01 732.898 201.361C730.736 175.638 747.154 130.409 709.778 117.242C670.792 103.508 622.021 136.845 597.025 158.495C580.874 172.483 562.055 195.413 539.559 202.998C507.803 213.706 479.336 192.73 454.213 178.802C414.507 156.791 371.494 162.655 327.169 151.548C302.103 145.267 298.146 125.19 296.616 104.971C294.346 74.984 270.819 40.277 239.559 31.767C189.321 18.089 149.218 68.109 99.144 62.85C66.488 59.42 32.461 33.743 0.677002 56.193" stroke="#FFD700" stroke-miterlimit="10"/>
<path d="M901.793 405.232C874.5 390.628 845.961 378.199 818.504 363.928C776.216 341.948 800.488 305.422 777.513 278.676C760.916 259.356 731.526 232.462 729.036 205.565C726.618 179.444 742.053 135.751 706.202 122.467C666.69 107.825 615.179 142.777 590.877 165.907C575.65 180.4 557.12 204.186 534.082 210.251C502.588 218.54 472.168 194.533 448.361 180.897C410.272 159.08 367.287 162.478 323.968 152.403C296.029 145.904 294.475 124.669 292.864 102.937C290.765 74.637 266.627 43.253 237.507 35.635C212.6 29.119 190.674 34.72 165.449 44.5C144.324 52.69 121.03 67.33 97.368 63.985C65.43 59.468 32.118 34.275 0.677979 56.194" stroke="#FFD700" stroke-miterlimit="10"/>
<path d="M901.793 405.232C874.209 390.754 845.457 378.633 817.33 365.166C774.445 344.635 793.711 312.453 773.401 283.565C758.467 262.323 730.738 234.316 725.628 209.25C720.692 185.035 736.802 140.908 702.28 127.867C660.988 112.269 609.113 148.962 584.907 173.904C570.365 188.887 552.326 212.343 528.545 216.753C497.256 222.555 465.39 196.152 442.413 182.683C406.104 161.397 363.018 162.333 320.892 153.185C292.599 147.041 290.199 127.112 289.069 104.809C287.632 76.432 264.895 46.899 235.386 39.506C210.419 33.251 188.335 38.55 162.962 47.775C142.09 55.362 117.88 69.63 95.611 65.086C66.233 59.093 30.65 35.496 0.677002 56.196" stroke="#FFD700" stroke-miterlimit="10"/>
<path d="M901.793 405.232C873.927 390.888 844.961 379.061 816.189 366.401C773.346 347.549 785.793 320.585 768.713 288.457C755.078 262.811 732.19 237.94 723.075 212.328C714.894 189.342 732.42 145.228 697.976 132.994C653.375 117.151 604.324 154.828 579.093 182.411C564.569 198.288 547.755 219.453 522.803 222.091C491.306 225.422 459.377 197.921 436.374 184.244C401.941 163.771 358.823 162.684 317.951 153.89C289.139 147.691 285.908 130.133 285.205 106.64C284.355 78.227 263.083 50.55 233.195 43.363C208.2 37.353 185.95 42.343 160.461 50.986C139.828 57.984 115.638 71.333 93.88 66.155C65.1 59.305 30.42 35.942 0.679993 56.195" stroke="#FFD700" stroke-miterlimit="10"/>
<path d="M901.793 405.232C873.656 391.028 844.446 379.494 815.081 367.629C773.107 350.67 776.55 325.702 763.621 293.285C752.637 265.742 735.485 241.108 721.399 214.953C709.19 192.282 728.114 149.323 693.478 137.621C645.904 121.547 599.632 161.666 573.386 191.296C558.528 208.067 542.761 225.919 516.713 226.454C484.792 227.108 453.785 199.767 430.236 185.695C397.575 166.177 354.587 162.366 315.133 154.524C288.858 149.301 281.629 135.442 280.997 112.709C280.152 82.322 264.763 54.904 230.915 47.199C203.522 40.965 179.652 47.402 151.684 56.291C132.968 62.239 112.058 72.15 92.165 67.197C62.876 59.901 30.935 35.885 0.677979 56.194" stroke="#FFD700" stroke-miterlimit="10"/>
<path d="M901.793 405.232C873.394 391.174 842.495 380.418 814.005 368.852C775.016 353.023 769.262 332.689 758.174 298.233C748.668 268.691 739.05 243.944 720.537 217.228C705.294 195.232 722.776 152.754 688.842 141.749C638.745 125.503 594.441 170.219 567.733 200.369C552.463 217.606 536.923 231.461 510.186 229.675C477.873 227.516 448.401 201.683 424.015 187.168C392.856 168.621 350.509 162.067 312.447 155.084C285.988 150.229 277.417 137.8 276.968 114.426C276.385 84.173 262.845 58.523 228.551 51.002C201.218 45.009 177.154 51.033 149.141 59.212C130.626 64.617 109.838 73.743 90.479 68.212C61.977 60.07 30.608 36.405 0.679993 56.192" stroke="#FFD700" stroke-miterlimit="10"/>
<path d="M901.793 405.232C873.138 391.325 842.088 380.859 812.962 370.072C775.498 356.194 762.454 337.739 752.42 303.389C743.302 272.173 742.645 247.113 720.376 219.262C703.432 198.069 716.47 155.356 684.094 145.431C632.066 129.48 588.559 177.928 562.051 209.385C520.315 258.911 457.797 212.176 417.714 188.826C387.618 171.293 347.068 161.79 309.879 155.575C283.313 151.135 273.247 140.14 272.901 116.111C272.468 86.112 260.691 62.089 226.087 54.767C198.844 49.001 174.59 54.61 146.576 62.069C128.254 66.947 107.64 75.283 88.806 69.209C61.104 60.271 30.28 36.922 0.679016 56.194" stroke="#FFD700" stroke-miterlimit="10"/>
<path d="M901.793 405.232C872.891 391.48 841.655 381.305 811.953 371.285C776.178 359.218 756.137 342.304 746.433 308.807C737.183 276.88 745.861 249.963 720.784 221.159C703.221 200.988 709.53 157.323 679.256 148.767C626.146 133.757 584.849 187.895 556.248 218.035C514.961 261.544 448.693 212.254 411.353 190.851C381.719 173.866 344.47 161.595 307.436 155.996C277.42 151.459 269.291 139.763 269.156 113.582C269.013 85.718 254.575 64.862 223.527 58.477C196.44 52.908 171.976 58.12 144.001 64.857C125.856 69.227 105.475 76.766 87.161 70.179C60.266 60.506 29.959 37.432 0.679993 56.19" stroke="#FFD700" stroke-miterlimit="10"/>
<path d="M901.793 405.232C872.649 391.638 841.203 381.755 810.973 372.495C776.902 362.059 750.768 346.464 740.297 314.513C729.843 282.612 748.267 252.901 721.585 223.028C710.953 211.125 704.521 200.742 699.655 186.248C694.79 171.757 693.555 156.87 674.325 151.912C620.588 138.062 580.914 198.664 549.952 225.665C508.156 262.114 441.42 213.917 405.181 193.698C374.759 176.725 342.936 161.539 305.1 156.356C274.963 152.228 265.255 142.105 265.049 115.225C264.838 87.78 251.858 68.309 220.862 62.139C193.919 56.775 169.302 61.572 141.412 67.587C123.406 71.471 103.355 78.204 85.532 71.137C59.46 60.802 29.644 37.942 0.679993 56.194" stroke="#FFD700" stroke-miterlimit="10"/>
<path d="M901.793 405.232C872.413 391.799 840.735 382.209 810.024 373.7C777.35 364.647 746.493 350.289 734.125 320.496C721.105 289.133 749.39 255.968 722.578 224.975C712.71 213.568 702.621 203.209 696.449 189.656C689.889 175.252 689.699 159.645 669.29 155.067C614.678 142.814 578.826 208.126 543.421 232.108C499.225 262.045 434.854 216.824 399.255 197.117C367.412 179.49 342.282 161.517 302.866 156.652C272.724 152.932 261.334 144.34 260.926 116.827C260.529 89.951 248.834 71.672 218.091 65.737C191.32 60.567 166.577 64.954 138.814 70.254C120.935 73.667 100.959 79.684 83.927 72.077C59.327 61.091 28.94 38.666 0.677979 56.192" stroke="#FFD700" stroke-miterlimit="10"/>
<path d="M901.793 405.232C872.182 391.965 840.254 382.67 809.103 374.901C777.196 366.944 743.842 353.824 728.039 326.718C710.405 296.471 748.732 259.137 723.525 227.112C714.36 215.47 702.051 205.541 694.365 192.811C686.017 178.986 684.42 161.735 664.125 158.49C610.929 149.984 576.713 216.342 536.747 237.521C491.265 261.625 428.96 221.709 393.545 201.107C361.211 182.296 341.904 161.403 300.725 156.9C274.452 154.027 258.382 148.773 256.541 123.155C254.516 94.951 250.197 75.725 215.213 69.275C191.474 64.898 168.666 66.989 143.733 71.425C124.007 74.935 100.958 81.948 82.34 73.009C58.44 61.533 28.73 39.113 0.677002 56.194" stroke="#FFD700" stroke-miterlimit="10"/>
<path d="M901.793 405.232C871.957 392.132 839.765 383.133 808.213 376.098C776.124 368.942 742.432 356.665 722.188 333.105C698.817 305.905 746.044 261.705 724.159 229.544C715.634 217.016 702.699 207.721 693.266 195.748C683.337 183.149 678.277 164.117 658.807 162.601C606.24 158.504 574.423 225.515 529.929 241.948C483.099 259.244 424 227.824 388.6 205.412C357.495 185.718 341.816 161.306 298.664 157.094C272.549 154.546 254.898 150.602 252.511 124.676C249.986 97.24 246.82 78.925 212.231 72.746C188.632 68.53 165.821 70.329 141.074 74.17C121.456 77.216 98.963 83.302 80.775 73.924C57.562 61.954 28.522 39.558 0.677979 56.19" stroke="#FFD700" stroke-miterlimit="10"/>
<path d="M901.793 405.232C871.736 392.302 839.27 383.6 807.35 377.289C774.261 370.747 742.539 358.525 716.734 339.554C688.158 318.544 739.51 261.518 724.179 232.386C716.264 217.346 701.004 207.147 689.118 194.727C679.128 184.289 670.884 167.674 653.438 167.787C600.406 168.131 571.9 233.236 523.016 245.452C475.208 257.398 418.748 234.156 384.064 209.81C353.712 188.504 342.058 161.189 296.673 157.248C270.674 154.99 251.691 152.275 248.618 126.155C245.497 99.628 243.193 82.005 209.145 76.153C185.667 72.118 162.936 73.607 138.409 76.868C118.886 79.464 96.996 84.628 79.231 74.834C56.714 62.416 28.317 40.004 0.679993 56.192" stroke="#FFD700" stroke-miterlimit="10"/>
<path d="M901.793 405.232C871.519 392.475 838.772 384.069 806.514 378.478C772.355 372.558 741.703 358.831 711.858 345.93C681.344 332.739 729.256 258.001 723.248 235.749C718.179 216.969 672.505 172.598 648.034 173.973C596.402 176.873 568.725 238.707 515.922 248.276C468.191 256.926 412.357 239.649 379.623 214.406C349.853 191.449 342.493 161.057 294.729 157.369C268.789 155.367 248.745 153.805 244.875 127.606C241.083 101.931 239.305 85.038 205.952 79.496C182.645 75.623 160.009 76.822 135.738 79.521C116.295 81.682 95.049 85.928 77.702 75.739C55.884 62.922 28.11 40.457 0.677002 56.194" stroke="#FFD700" stroke-miterlimit="10"/>
<path d="M901.793 405.232C871.307 392.649 838.272 384.538 805.702 379.662C771.778 374.584 741.204 358.082 707.763 352.062C672.597 345.732 719.887 255.921 720.641 240.195C721.696 218.185 670.531 177.937 643.081 181.147C619.575 183.896 600.682 202.029 582.993 215.306C560.677 232.057 537.735 246.033 508.995 250.968C462.159 259.012 406.168 244.807 375.047 219.27C361.601 208.238 355.5 186.235 342.028 173.544C329.236 161.494 310.533 158.653 292.824 157.46C262.495 155.419 245.383 153.478 241.053 124.394C237.591 101.145 231.135 87.433 202.665 82.773C179.643 79.005 157.056 79.977 133.077 82.131C113.697 83.871 93.137 87.197 76.198 76.634C55.08 63.465 27.909 40.904 0.679016 56.19" stroke="#FFD700" stroke-miterlimit="10"/>
<path d="M901.793 405.232C871.098 392.825 837.773 385.006 804.915 380.843C770.902 376.535 735.711 358.874 704.66 357.767C664.43 356.332 710.36 261.735 715.088 247.447C724.926 217.723 668.294 182.945 639.419 188.37C615.475 192.869 596.511 210.153 577.318 223.045C553.717 238.899 530.845 248.199 502.347 253.767C456.255 262.774 399.725 250.092 370.139 224.465C356.407 212.571 352.808 188.85 339.828 174.793C327.644 161.597 309.092 158.636 290.932 157.541C260.901 155.732 242.657 154.881 237.297 125.87C233.115 103.24 227.249 90.458 199.28 85.997C176.513 82.365 154.077 83.082 130.424 84.716C111.083 86.051 91.259 88.456 74.706 77.532C54.289 64.058 27.705 41.359 0.675964 56.194" stroke="#FFD700" stroke-miterlimit="10"/>
<path d="M901.793 405.232C870.895 393.002 837.274 385.47 804.15 382.021C770.144 378.479 736.276 364.568 702.286 363.618C648.583 362.115 699.651 279.941 706.97 257.282C713.929 235.739 711.159 222.283 689.63 208.212C674.508 198.328 655.166 190.981 636.473 195.394C611.951 201.183 592.256 217.742 571.361 230.089C547.181 244.377 523.486 250.496 496.064 256.844C451.039 267.264 396.322 255.446 364.76 230.011C356.425 223.293 350.276 213.086 346.437 202.802C343.514 193.928 340.447 185.102 337.238 176.327C325.737 161.843 307.934 158.644 289.038 157.615C259.486 156.004 240.112 155.952 233.629 127.336C228.662 105.412 223.479 93.21 195.795 89.153C160.991 84.053 103.312 99.371 73.236 78.429C53.518 64.699 27.506 41.818 0.677979 56.195" stroke="#FFD700" stroke-miterlimit="10"/>
<path d="M901.793 405.232C870.695 393.181 836.777 385.932 803.406 383.196C769.342 380.403 735.145 368.413 700.713 369.197C684.549 369.566 674.651 370.895 668.462 356.642C659.293 335.528 689.451 288.047 696.645 269.382C705.219 247.142 713.185 228.548 689.22 212.446C673.627 201.969 652.541 197.25 633.765 202.249C608.512 208.972 587.651 224.861 564.985 236.523C540.833 248.949 516.132 253.039 490.181 260.326C446.787 272.51 385.399 260.789 358.806 235.91C343.078 221.197 344.245 198.648 333.962 178.362C325.541 161.747 305.625 158.609 287.117 157.689C258.18 156.251 237.661 156.672 230.055 128.789C224.263 107.554 219.786 95.825 192.272 92.148C157.425 87.491 101.395 101.018 71.782 79.322C52.681 65.33 27.477 42.375 0.677002 56.194" stroke="#FFD700" stroke-miterlimit="10"/>
<path d="M901.793 405.232C870.498 393.362 836.281 386.388 802.682 384.367C768.575 382.316 734.316 372.316 699.823 374.511C686.851 375.336 668.915 378.853 660.751 367.623C647.551 349.468 677.867 299.333 684.527 283.337C692.686 263.735 710.305 237.468 690.618 219.496C675.792 205.959 650.026 203.593 630.901 208.985C604.814 216.339 582.534 231.573 558.147 242.448C534.456 253.013 509.071 256.032 484.708 264.294C442.883 278.478 377.79 265.965 352.227 242.142C337.337 228.268 336.717 208.506 331.426 187.267C325.798 164.671 310.216 159.024 285.149 157.778C256.686 156.365 235.27 157.186 226.584 130.233C219.95 109.651 216.058 98.198 188.78 94.962C153.994 90.835 99.415 102.577 70.346 80.217C51.978 66.087 27.296 42.844 0.679016 56.193" stroke="#FFD700" stroke-miterlimit="10"/>
<path d="M901.793 405.232C870.304 393.543 835.787 386.836 801.975 385.535C767.901 384.225 733.862 376.346 699.494 379.562C687.872 380.649 664.454 385.384 654.626 377.162C636.634 362.109 665.169 312.609 671.079 298.637C679.069 279.749 703.654 244.661 687.327 225.038C674.555 209.687 645.275 210.59 627.556 215.656C597.839 224.154 572.056 240.817 543.017 250.91C522.273 258.121 499.99 260.659 479.607 268.774C439.649 284.683 369.024 270.967 345.009 248.66C318.033 223.603 343.203 160.61 283.059 157.925C255.181 156.68 232.895 157.577 223.211 131.674C215.747 111.711 212.401 100.445 185.336 97.599C150.395 93.925 97.616 104.242 68.921 81.116C51.284 66.903 27.104 43.321 0.677002 56.191" stroke="#FFD700" stroke-miterlimit="10"/>
<path d="M901.793 405.232C870.113 393.725 835.292 387.276 801.285 386.702C767.34 386.13 733.698 380.452 699.611 384.371C686.861 385.837 662.556 391.072 650.66 384.459C627.234 371.436 650.418 330.317 656.83 314.665C664.475 296.002 694.944 252.162 682.484 231.37C672.215 214.235 639.791 217.714 623.498 222.338C592.987 230.996 565.694 246.634 535.375 255.795C515.023 261.945 494.154 265.17 474.819 273.742C437.135 290.448 363.456 275.966 337.201 255.391C304.475 229.744 345.516 160.885 280.64 158.283C253.755 157.205 230.575 157.911 219.951 133.112C211.654 113.744 208.89 102.584 181.977 100.059C146.613 96.74 96.051 106.063 67.517 82.021C50.587 67.755 26.917 43.805 0.679016 56.191" stroke="#FFD700" stroke-miterlimit="10"/>
<path d="M901.793 405.232C869.924 393.908 834.796 387.708 800.608 387.866C766.884 388.024 733.744 384.599 700.047 388.962C684.721 390.946 663.313 395.303 648.211 390.308C619.31 380.749 635.51 348.782 642.345 330.292C649.49 310.957 686.766 257.549 674.299 236.022C664.943 219.867 632.919 224.974 618.56 229.118C569.135 243.382 517.66 261.896 469.383 278.9C430.234 292.69 356.697 282.962 328.878 262.237C294.776 236.831 344.612 162.476 277.959 158.82C251.774 157.383 228.28 158.188 216.793 134.553C207.659 115.76 205.541 104.618 178.71 102.347C142.831 99.31 94.517 107.899 66.124 82.933C49.874 68.645 26.725 44.296 0.677979 56.193" stroke="#FFD700" stroke-miterlimit="10"/>
<path d="M901.793 405.232C869.737 394.092 834.299 388.131 799.943 389.03C766.504 389.904 733.931 388.774 700.678 393.368C683.72 395.711 663.751 399.014 646.733 395.388C615.715 388.78 621.625 366.431 628.173 344.651C633.113 328.215 641.442 311.054 648.92 294.402C653.955 283.188 669.702 258.834 665.189 245.84C658.513 226.62 629.491 231.473 612.667 236.097C562.309 249.934 512.512 269.427 461.838 283.673C442.13 289.214 422.885 289.129 402.554 287.009C376.607 284.305 339.504 284.422 320.176 269.075C283.251 239.754 343.382 164.408 275.017 159.54C254.373 158.07 228.191 158.971 215.397 141.538C201.509 122.614 208.432 106.872 175.56 104.465C139.778 101.845 92.365 109.371 64.746 83.848C49.292 69.566 26.527 44.794 0.677979 56.189" stroke="#FFD700" stroke-miterlimit="10"/>
<path d="M901.793 405.232C869.552 394.275 833.738 388.547 799.288 390.19C766.218 391.769 734.184 392.967 701.383 397.628C683.63 400.151 663.913 402.719 646.025 399.78C616.78 394.974 610.503 380.161 614.859 357.196C617.783 341.787 625.564 325.095 632.701 309.259C638.869 295.57 654.644 273.158 653.111 257.711C650.806 234.467 626.675 237.987 605.81 243.391C554.683 256.635 504.321 275.445 452.527 288.175C414.924 297.417 340.492 296.507 311.268 275.762C272.089 247.951 340.718 166.678 271.798 160.455C251.881 158.657 225.875 159.161 212.839 142.863C198.241 124.609 204.929 108.641 172.534 106.427C136.509 103.966 90.838 110.931 63.378 84.777C48.412 70.522 26.32 45.306 0.674988 56.191" stroke="#FFD700" stroke-miterlimit="10"/>
<path d="M901.793 405.232C869.366 394.458 833.061 388.966 798.641 391.351C766.03 393.611 734.411 397.188 702.036 401.795C663.927 407.217 602.523 405.073 602.947 367.504C603.284 337.708 632.908 304.062 638.703 270.634C643.214 244.612 621.014 245.571 598.076 251.129C546.023 263.74 494.612 280.504 441.839 292.52C399.067 302.26 335.361 299.46 302.383 282.12C260.908 260.311 337.597 169.751 268.305 161.56C248.938 159.271 223.636 159.374 210.463 144.069C195.308 126.46 201.361 110.314 169.651 108.237C133.328 105.857 89.535 112.386 62.029 85.712C47.4 71.527 26.112 45.828 0.677002 56.192" stroke="#FFD700" stroke-miterlimit="10"/>
<path d="M901.793 405.232C869.179 394.641 832.37 389.384 797.999 392.51C765.788 395.439 734.551 401.443 702.506 405.922C669.51 410.535 600.307 411.098 592.96 375.268C587.234 347.342 610.146 317.217 620.389 289.56C630.023 263.545 621.312 251.922 589.62 259.42C536.562 271.974 483.599 285.023 430.148 296.814C387.254 306.275 328.998 303.935 293.784 287.952C248.156 267.244 332.831 173.098 264.531 162.86C245.762 160.048 221.363 159.633 208.17 145.217C192.609 128.217 197.852 111.905 166.916 109.902C130.427 107.538 87.859 113.21 60.732 86.591C46.616 72.739 25.873 46.366 0.677979 56.192" stroke="#FFD700" stroke-miterlimit="10"/>
<path d="M901.793 405.232C868.991 394.823 831.665 389.806 797.36 393.668C765.443 397.263 734.511 405.748 702.666 410.077C664.252 415.3 604.892 411.146 585.342 380.155C571.296 357.89 594.333 325.4 602.99 302.207C611.216 280.166 612.742 261.318 579.321 267.929C526.493 278.379 471.215 289.367 417.833 301.14C376.003 310.365 324.923 308.091 286.098 293.087C232.423 272.344 327.361 177.212 260.477 164.356C242.286 160.86 219.036 159.958 205.925 146.331C190.113 129.897 194.435 113.429 164.329 111.439C127.8 109.025 86.242 113.869 59.469 87.42C45.804 73.92 25.597 46.93 0.679993 56.194" stroke="#FFD700" stroke-miterlimit="10"/>
<path d="M901.793 405.231C868.8 395.003 830.947 390.23 796.721 394.826C764.943 399.095 734.198 410.122 702.385 414.334C658.326 420.169 610.136 409.035 579.462 382.634C553.998 360.716 622.591 267.646 566.473 276.392C514.198 284.539 458.07 293.699 405.26 305.569C364.663 314.692 316.232 312.542 279.031 297.993C225.527 277.067 316.916 178.893 256.141 166.044C239.052 162.432 216.625 160.364 203.697 147.43C187.785 131.514 191.129 114.892 161.894 112.858C125.479 110.325 84.641 114.353 58.234 88.201C44.97 75.064 25.283 47.505 0.677002 56.191" stroke="#FFD700" stroke-miterlimit="10"/>
<path d="M901.793 405.233C868.605 395.185 830.219 390.665 796.08 395.987C764.223 400.953 733.522 414.581 701.532 418.776C656.613 424.665 610.039 407.761 575.206 384.434C552.12 368.974 560.356 345.694 567.633 324.523C573.229 308.24 583.454 281.143 551.738 284.31C500.244 289.454 444.698 298.155 392.8 310.156C352.817 319.402 307.441 320.203 272.279 302.792C221.692 277.742 306.701 183.081 251.532 167.923C232.27 162.631 211.74 159.77 198.02 144.464C184.601 129.493 185.662 116.055 159.608 114.178C123.263 111.56 83.192 114.748 57.024 88.952C44.22 76.33 24.707 47.775 0.677002 56.192" stroke="#FFD700" stroke-miterlimit="10"/>
<path d="M901.793 405.234C868.403 395.363 829.481 391.11 795.434 397.149C763.211 402.864 732.413 419.133 699.972 423.492C655.22 429.505 605.197 407.214 572.478 385.822C550.238 371.281 546.27 358.026 551.322 332.528C554.447 316.754 565.767 290.68 535.757 291.348C484.645 292.486 431.535 302.962 380.818 314.936C340.801 324.384 299.983 326.49 265.906 307.454C217.893 280.633 296.783 187.228 246.659 169.989C228.621 163.785 209.013 160.297 195.722 145.742C182.357 131.107 182.814 117.44 157.469 115.416C121.404 112.536 81.77 115.082 55.833 89.677C43.329 77.43 24.342 48.356 0.677002 56.197" stroke="#FFD700" stroke-miterlimit="10"/>
<path d="M901.793 405.233C868.194 395.537 828.736 391.565 794.782 398.308C761.812 404.856 730.843 423.704 697.575 428.56C653.845 434.944 604.638 406.49 571.125 387.024C549.72 374.591 536.092 363.298 536.518 338.659C536.794 322.626 547.06 299.067 519.161 297.333C469.014 294.215 418.412 308.393 369.674 319.925C329.005 329.548 294.876 332.88 259.92 311.937C211.383 282.859 289.322 193.282 241.531 172.229C224.755 164.84 206.174 160.923 193.411 147.025C180.236 132.68 180.059 118.793 155.468 116.583C119.732 113.37 80.363 115.376 54.657 90.377C42.448 78.503 23.932 48.947 0.677979 56.194" stroke="#FFD700" stroke-miterlimit="10"/>
<path d="M901.793 405.232C867.976 395.709 828.044 392.065 794.118 399.469C760.173 406.877 729.207 428.01 694.672 433.535C651.34 440.467 604.825 406.719 570.936 388.244C550.765 377.246 528.981 365.562 523.77 343C520.028 326.796 528.415 305.971 502.57 302.261C454.272 295.326 405.183 315.272 359.72 325.126C344.874 328.344 329.569 329.533 314.469 333.008C289.98 338.644 272.707 329.079 254.306 316.202C230.678 299.669 237.806 274.154 242.352 248.937C245.575 231.056 258.115 187.163 236.156 174.638C220.813 165.885 203.202 161.654 191.059 148.334C178.203 134.231 177.391 120.132 153.593 117.701C118.215 114.087 78.972 115.663 53.489 91.063C41.572 79.558 23.482 49.553 0.677979 56.19" stroke="#FFD700" stroke-miterlimit="10"/>
<path d="M901.793 405.233C867.745 395.88 827.303 392.559 793.441 400.635C758.585 408.949 727.298 432.287 691.533 438.182C647.071 445.511 606.89 408.553 571.639 389.65C551 378.584 524.295 366.568 513.617 345.785C505.691 330.361 509.66 311.337 486.589 306.3C441.515 296.462 392.384 323.225 351.312 330.534C337.016 333.078 323.67 335.824 309.3 339.688C285.257 346.154 266.174 333.441 249.665 320.238C228.461 303.28 233.116 278.477 236.706 253.555C239.414 234.757 250.252 191.841 230.553 177.211C216.901 167.072 200.086 162.494 188.647 149.688C176.225 135.785 174.814 121.48 151.831 118.8C116.829 114.717 77.599 115.972 52.326 91.748C40.696 80.602 22.996 50.172 0.679016 56.194" stroke="#FFD700" stroke-miterlimit="10"/>
<path d="M901.793 405.231C867.5 396.044 826.566 393.07 792.747 401.801C756.996 411.031 725.265 436.468 688.176 442.514C641.522 450.121 608.941 411.198 572.904 391.365C548.968 378.191 519.278 365.61 503.165 343.757C493.44 330.569 491.038 314.839 471.816 309.77C429.578 298.632 382.655 330.37 344.787 336.107C330.838 338.22 319.197 342.765 305.559 346.606C281.35 353.425 260.397 337.675 245.303 323.985C226.72 307.129 229.48 281.57 231.792 257.733C233.806 236.969 241.641 196.677 224.738 179.927C215.081 170.359 200.027 165.476 190.115 155.459C176.196 141.389 174.37 123.054 150.161 119.893C115.417 115.357 76.243 116.312 51.162 92.43C39.822 81.632 22.452 50.802 0.679016 56.193" stroke="#FFD700" stroke-miterlimit="10"/>
<path d="M901.793 405.232C867.241 396.208 825.832 393.603 792.033 402.971C755.376 413.131 723.137 440.536 684.618 446.563C635.577 454.236 610.099 414.61 574.342 393.489C550.919 379.653 522.634 367.847 501.757 349.873C487.745 337.811 478.189 317.556 458.834 313.166C418.199 303.95 379.597 335.109 339.979 341.809C326.504 344.087 315.755 350.41 303.086 353.688C277.899 360.206 255.304 342.138 240.983 327.476C205.902 291.561 247.834 222.355 218.73 182.779C211.217 172.562 196.567 166.809 187.349 156.901C174.3 142.876 171.746 124.483 148.568 121.009C114.218 115.86 74.911 116.708 49.994 93.118C38.94 82.652 21.891 51.434 0.680969 56.192" stroke="#FFD700" stroke-miterlimit="10"/>
<path d="M901.793 405.233C866.961 396.367 825.167 394.187 791.296 404.146C753.612 415.225 720.995 444.494 680.884 450.363C629.956 457.813 609.919 419.428 575.506 396.085C552.385 380.4 523.865 368.873 500.083 352.578C483.753 341.388 467.952 320.169 448.213 317.148C410.209 311.329 373.614 339.565 337.006 348.039C324.297 350.98 310.511 359.69 297.447 361.896C273.236 365.983 248.63 344.805 236.503 330.738C206.061 295.428 233.798 226.275 212.548 185.75C206.946 175.067 193.007 168.284 184.441 158.441C172.303 144.49 169.138 126.309 147.021 122.176C112.551 115.735 74.074 117.629 48.816 93.82C38.038 83.662 21.308 52.066 0.677979 56.194" stroke="#FFD700" stroke-miterlimit="10"/>
<path d="M901.793 405.234C866.661 396.523 824.451 394.768 790.533 405.323C751.841 417.364 718.747 448.283 677.001 453.953C625.806 460.906 607.031 425.034 575.888 399.18C553.488 380.584 521.642 368.414 495.102 352.374C478.457 342.315 460.651 324.596 440.427 322.49C405.027 318.804 368.458 344.447 335.653 354.755C323.189 358.672 308.247 366.573 294.997 368.158C268.833 371.29 244.152 349.636 231.721 333.793C217.36 315.492 222.939 284.273 220.905 261.153C218.774 236.939 214.034 210.402 206.22 188.823C202.205 177.736 189.331 169.961 181.392 160.077C170.226 146.173 166.603 127.915 145.499 123.419C111.271 116.127 72.808 118.206 47.627 94.537C37.123 84.663 20.72 52.695 0.677002 56.195" stroke="#FFD700" stroke-miterlimit="10"/>
<path d="M901.793 405.233C866.337 396.674 823.744 395.374 789.74 406.504C749.969 419.522 716.485 451.879 673.006 457.38C623.439 463.651 601.219 431.676 574.925 402.767C556.593 382.613 523.421 370.177 497.058 356.031C478.489 346.068 458.264 330.501 436.061 328.679C403.98 326.045 364 351.109 335.319 361.702C290.079 378.412 253.696 374.675 226.539 336.661C213.08 317.821 221.826 286.942 218.354 263.771C214.685 239.296 204.936 214.693 199.78 191.976C197.185 180.546 185.552 171.855 178.202 161.811C168.056 147.946 164.103 129.628 143.975 124.766C110.004 116.559 71.527 118.844 46.428 95.273C34.826 84.378 21.381 55.19 0.679016 56.193" stroke="#FFD700" stroke-miterlimit="10"/>
<path d="M901.793 405.233C864.79 396.537 823.22 396.958 788.914 407.692C748.676 420.281 714.194 455.367 668.937 460.703C620.903 466.367 594.137 440.586 571.987 406.811C557.722 385.057 525.067 372.439 500.575 360.241C480.5 350.244 458.68 336.781 435.324 335.187C418.509 334.038 405.071 340.668 390.476 347.215C372.304 355.365 353.633 362.079 335.47 368.681C289.546 385.37 246.63 377.738 220.891 339.374C207.768 319.817 221.002 289.675 216.338 265.991C211.57 241.781 196.231 218.757 193.243 195.196C191.74 183.343 181.647 173.963 174.859 163.652C165.871 149.999 161.304 131.393 142.409 126.254C108.919 117.143 70.234 119.641 45.208 96.039C33.796 85.278 20.837 55.907 0.677979 56.197" stroke="#FFD700" stroke-miterlimit="10"/>
<path d="M901.793 405.229C864.381 396.675 822.546 397.632 788.05 408.88C746.603 422.394 711.766 458.713 664.836 463.976C617.149 469.323 584.575 447.052 567.123 411.28C551.508 379.275 476.449 343.871 437.318 341.935C420.244 341.09 406.84 348.224 391.969 354.725C373.434 362.827 354.404 369.737 335.663 375.519C288.318 390.121 240.007 381.581 214.772 341.938C201.641 321.309 220.151 292.195 214.758 267.838C209.417 243.712 188.261 223.103 186.648 198.447C185.457 180.223 160.893 133.859 140.766 127.903C107.798 118.143 68.83 120.364 43.966 96.826C32.751 86.208 20.264 56.6 0.675964 56.19" stroke="#FFD700" stroke-miterlimit="10"/>
<path d="M901.793 405.232C863.948 396.816 821.854 398.329 787.145 410.081C744.476 424.527 709.237 461.909 660.751 467.281C615.524 472.292 578.946 454.958 561.733 416.216C545.197 378.994 485.018 350.159 441.171 348.921C406.983 347.956 367.711 374.26 335.523 382.121C286.344 394.135 233.285 384.74 208.22 344.391C194.707 322.637 219.069 294.448 213.488 269.385C208.057 244.998 180.743 226.14 180.032 201.723C179.507 183.76 159.661 136.48 139.012 129.762C106.408 119.155 67.286 121.071 42.705 97.652C31.672 87.142 19.698 57.298 0.677002 56.191" stroke="#FFD700" stroke-miterlimit="10"/>
<path d="M901.793 405.232C863.488 396.952 821.183 399.06 786.195 411.286C742.253 426.642 706.909 464.632 656.736 470.682C612.316 476.039 572.439 461.175 555.935 421.661C539.653 382.678 493.037 356.528 446.086 356.108C409.184 355.777 370.884 381.943 334.756 388.414C283.251 397.638 226.806 386.984 201.321 346.746C186.912 323.996 217.621 296.484 212.369 270.69C207.325 245.916 173.964 228.261 173.428 204.991C173.014 187.036 158.362 139.95 137.101 131.865C105.914 120.002 65.478 121.648 41.418 98.518C30.548 88.068 19.15 58 0.674988 56.195" stroke="#FFD700" stroke-miterlimit="10"/>
<path d="M901.793 405.233C863.172 397.037 820.308 399.698 785.198 412.499C740.12 428.937 704.657 466.764 652.851 474.267C609.355 480.567 565.443 467.092 549.81 427.635C543.154 410.833 539.624 397.004 523.339 385.636C504.581 372.541 474.767 363.206 451.321 363.462C411.702 363.897 372.715 389.939 333.141 394.376C283.103 399.984 220.01 391.688 194.198 349.018C178.758 323.493 215.71 298.248 211.219 271.836C206.948 246.72 168.01 230.651 167.14 208.074C166.435 189.781 156.664 143.581 134.989 134.241C105.421 121.5 63.651 122.326 40.106 99.419C29.378 88.98 18.628 58.698 0.675964 56.194" stroke="#FFD700" stroke-miterlimit="10"/>
<path d="M901.793 405.233C862.654 397.163 819.416 400.414 784.147 413.72C738.161 431.07 701.841 468.785 649.157 478.124C607.069 485.584 558.626 473.099 543.454 434.114C536.967 417.446 534.579 400.736 518.921 388.85C503.165 376.89 476.193 370.368 456.191 370.944C413.845 372.162 373.688 397.416 330.536 400.037C278.62 403.191 214.938 393.268 187.033 351.228C169.302 324.517 213.239 299.642 209.818 272.93C206.543 247.348 162.785 233.144 161.143 211.017C159.778 192.61 155.341 147.57 132.527 136.933C103.23 123.272 61.853 123.163 38.765 100.363C28.155 89.887 18.134 59.407 0.677002 56.196" stroke="#FFD700" stroke-miterlimit="10"/>
<path d="M901.793 405.232C862.107 397.284 818.44 401.135 783.04 414.947C736.317 433.178 698.96 470.844 645.723 482.345C605.066 491.128 552.252 479.256 536.957 441.032C522.322 404.457 512.011 375.996 460.076 378.496C415.112 380.659 372.953 404.747 326.872 405.465C274.087 406.288 211.107 395.539 180.078 353.399C159.483 325.428 208.992 300.714 207.299 274.342C205.577 247.557 158.257 235.769 155.415 213.827C153.017 195.33 153.684 151.133 129.95 139.698C101.371 125.929 59.717 123.787 37.395 101.347C26.882 90.777 17.67 60.12 0.677979 56.194" stroke="#FFD700" stroke-miterlimit="10"/>
</g>
</svg>
